<svg xmlns="http://www.w3.org/2000/svg" width="22.123" height="22.122" viewBox="0 0 22.123 22.122">
  <defs>
    <style>
      .cls-1 {
        fill: #fff;
      }
    </style>
  </defs>
  <g id="Group_15" data-name="Group 15" transform="translate(0 0)">
    <path id="Path_41" data-name="Path 41" class="cls-1" d="M754.888,3147.6h-.475a1.743,1.743,0,0,0-.824.428c-.163.172-.32.351-.47.535a.355.355,0,1,0,.54.461c.128-.136.243-.284.371-.42a.787.787,0,1,1,1.1,1.114,13.631,13.631,0,0,1-1.112.854c-.081.06-.112.038-.162-.036a2.3,2.3,0,0,0-2.042-1.031q-2.484.011-4.967,0a2.814,2.814,0,0,0-2.09.861q-5.156,5.167-10.32,10.324a1.133,1.133,0,0,0,0,1.759l6.841,6.841a1.141,1.141,0,0,0,1.79,0q5.147-5.147,10.294-10.29a2.834,2.834,0,0,0,.873-2.107c-.006-1.656,0-3.311,0-4.967a1.06,1.06,0,0,0-.012-.3c-.073-.237.04-.352.22-.486.653-.486,1.421-.866,1.7-1.723v-.562A1.4,1.4,0,0,0,754.888,3147.6Zm-1.988,10.844L742.546,3168.8c-.279.279-.468.276-.751-.007l-6.826-6.827c-.311-.312-.31-.481,0-.8q5.131-5.131,10.26-10.265a2.169,2.169,0,0,1,1.638-.678c1.685.014,3.369.006,5.054,0a1.55,1.55,0,0,1,1.325.68c.066.091.074.144-.039.212-.388.232-.772.473-1.152.717a.162.162,0,0,1-.235-.023,1.5,1.5,0,1,0-.909,2.611,1.475,1.475,0,0,0,1.389-1.607.37.37,0,0,1,.222-.435c.328-.175.637-.384.987-.6v2.75c0,.806-.006,1.613,0,2.419A1.993,1.993,0,0,1,752.9,3158.443Zm-2.4-5.358c.1.2.314.245.557.121.178-.09.354-.185.536-.28a.765.765,0,0,1-.561.759.788.788,0,0,1-.755-1.329.76.76,0,0,1,.984-.069c-.188.1-.367.191-.545.287A.378.378,0,0,0,750.5,3153.085Z" transform="translate(-734.019 -3147.599)"/>
    <path id="Path_42" data-name="Path 42" class="cls-1" d="M765.691,3169.789a.324.324,0,0,0-.333-.28.335.335,0,0,0-.357.28.9.9,0,0,0-.008.215q0,1.814,0,3.626t0,3.627c0,.358.117.533.356.533s.356-.174.357-.534q0-3.615,0-7.231A1.179,1.179,0,0,0,765.691,3169.789Z" transform="translate(-754.667 -3162.206)"/>
    <path id="Path_43" data-name="Path 43" class="cls-1" d="M771.173,3177.41a1.506,1.506,0,1,0,1.5,1.514A1.5,1.5,0,0,0,771.173,3177.41Zm0,2.29a.785.785,0,1,1,.783-.779A.785.785,0,0,1,771.174,3179.7Z" transform="translate(-757.784 -3167.473)"/>
    <path id="Path_44" data-name="Path 44" class="cls-1" d="M755,3177.411a1.506,1.506,0,1,0,1.459,1.529A1.5,1.5,0,0,0,755,3177.411Zm-.042,2.289a.785.785,0,1,1,.791-.795A.79.79,0,0,1,754.956,3179.7Z" transform="translate(-746.978 -3167.474)"/>
  </g>
</svg>
