<svg xmlns="http://www.w3.org/2000/svg" width="17.931" height="20.986" viewBox="0 0 17.931 20.986">
  <g id="Group_21" data-name="Group 21" transform="translate(0 0)">
    <path id="Path_55" data-name="Path 55" d="M292.871,3164.314a.932.932,0,0,0,.072-.411q.035-2.422.07-4.845h.025c0-.577-.006-1.155,0-1.732a36.247,36.247,0,0,0-.1-3.882c-.141-1.483-.281-2.966-.4-4.45a1.9,1.9,0,0,0-1.634-1.75c-1.306-.107-2.614-.2-3.924-.234a45.068,45.068,0,0,0-4.744.216,1.91,1.91,0,0,0-1.88,1.932c-.062.941-.168,1.88-.254,2.819-.11,1.2-.25,2.391-.246,3.594.006,1.74.033,3.48.052,5.22q.018,1.581.041,3.16a.678.678,0,0,0,.746.753q2.189.02,4.377.036c.074,0,.222.067.2-.1-.018-.135.122-.338-.145-.392a3.04,3.04,0,0,1-.683-.233c-.386-.18-.435-.253-.248-.643a2.829,2.829,0,0,0,.268-1.548c-.137-1.452-.223-2.909-.311-4.365a1.113,1.113,0,0,1,1.184-1.232q1.111,0,2.224,0a1.365,1.365,0,0,1,.279.022,1.1,1.1,0,0,1,.9,1.21c-.108,1.564-.232,3.127-.357,4.69a1.167,1.167,0,0,0,.119.741,3.975,3.975,0,0,1,.263.6c.1.244.047.359-.189.467a4.857,4.857,0,0,1-.834.3c-.235.06-.1.255-.122.387-.025.148.1.1.176.1,1.5-.012,3-.03,4.494-.038A.608.608,0,0,0,292.871,3164.314Zm-10.08-7.742a.373.373,0,0,1-.41.4q-.665.007-1.331,0a.373.373,0,0,1-.411-.4c-.005-.249-.006-.5,0-.748a.37.37,0,0,1,.4-.393c.226-.006.452,0,.678,0s.436,0,.654,0a.379.379,0,0,1,.423.415C282.8,3156.089,282.8,3156.331,282.791,3156.573Zm3.636-1.8h-4.7a1.145,1.145,0,0,1-1.209-1.344q.171-2,.308-4.012a1.3,1.3,0,0,1,1.368-1.294h8.5a1.266,1.266,0,0,1,1.342,1.212c.113,1.384.2,2.77.322,4.152a1.17,1.17,0,0,1-1.218,1.294C289.563,3154.76,287.995,3154.777,286.427,3154.777Zm5.474,2.2c-.226.006-.452,0-.678,0s-.436,0-.654,0a.379.379,0,0,1-.423-.415c0-.242,0-.483,0-.724a.373.373,0,0,1,.409-.4q.665-.007,1.332,0a.373.373,0,0,1,.411.4c.005.249.006.5,0,.747A.371.371,0,0,1,291.9,3156.977Z" transform="translate(-277.477 -3147.002)" fill="#fff"/>
    <path id="Path_56" data-name="Path 56" d="M297.562,3181.353c.025-.313.049-.6.071-.887.088-1.151.18-2.3.259-3.452a.559.559,0,0,0-.617-.647q-1.111,0-2.223,0a.568.568,0,0,0-.628.66c.024.483.062.965.1,1.447.067.954.135,1.908.2,2.9.291-.268.291-.268.226-.592a1.232,1.232,0,0,1,1.91-1.252,1.162,1.162,0,0,1,.489,1.269C297.252,3181.08,297.366,3181.2,297.562,3181.353Z" transform="translate(-287.19 -3166.577)" fill="#fff"/>
    <path id="Path_57" data-name="Path 57" d="M294.675,3193.525a4.541,4.541,0,0,0,3.15-.008c.054-.019.176,0,.117-.135a5.191,5.191,0,0,0-.822-1.4c-.085-.1-.146-.087-.252-.026a1.161,1.161,0,0,1-1.24,0c-.142-.085-.2-.044-.285.053a5.407,5.407,0,0,0-.757,1.306C294.531,3193.434,294.549,3193.48,294.675,3193.525Z" transform="translate(-287.279 -3176.939)" fill="#fff"/>
    <path id="Path_58" data-name="Path 58" d="M275.08,3157.56a.251.251,0,0,0,.056-.355,1.19,1.19,0,0,0-.2-.231,2.087,2.087,0,0,1-.776-1.5.791.791,0,0,0-.036-.207.165.165,0,0,1,.091-.223.894.894,0,0,0,.454-.69,1,1,0,0,0-.839-1.1.977.977,0,0,0-1.067.681.944.944,0,0,0,.515,1.151.431.431,0,0,1,.323.432,1.391,1.391,0,0,0,.041.229,2.319,2.319,0,0,0,.186.787,8.339,8.339,0,0,0,.907,1.033A.237.237,0,0,0,275.08,3157.56Z" transform="translate(-272.725 -3151.162)" fill="#fff"/>
    <path id="Path_59" data-name="Path 59" d="M320.909,3153.281a.984.984,0,0,0-1.1.414.88.88,0,0,0,.107,1.155c.337.247.282.5.215.81a2.587,2.587,0,0,0-.07.366.729.729,0,0,1-.234.467c-.2.214-.4.437-.6.66a.259.259,0,0,0,.007.395.247.247,0,0,0,.377,0c.447-.512,1.051-.928,1.054-1.717a2.8,2.8,0,0,1,.08-.459.261.261,0,0,1,.2-.242.941.941,0,0,0,.652-.926A.978.978,0,0,0,320.909,3153.281Z" transform="translate(-303.671 -3151.162)" fill="#fff"/>
    <path id="Path_60" data-name="Path 60" d="M299.016,3200.94c0-.538,0-1.075,0-1.613,0-.118-.02-.159-.154-.139a3.424,3.424,0,0,1-.909,0c-.123-.014-.16,0-.159.134q.006,1.6,0,3.2c0,.184.085.249.259.244.226-.006.453-.01.678,0s.289-.081.285-.291C299.01,3201.969,299.016,3201.455,299.016,3200.94Z" transform="translate(-289.439 -3181.789)" fill="#fff"/>
    <path id="Path_61" data-name="Path 61" d="M297.642,3187.555a.662.662,0,1,0,.668-.663A.651.651,0,0,0,297.642,3187.555Z" transform="translate(-289.336 -3173.595)" fill="#fff"/>
    <path id="Path_62" data-name="Path 62" d="M280.188,3200.807a1.212,1.212,0,0,1-1.07-.495c0,.406,0,.761,0,1.116,0,.13.1.172.207.173.25.005.5,0,.749,0,.11,0,.206-.041.21-.17.007-.179,0-.359,0-.538C280.291,3200.819,280.252,3200.8,280.188,3200.807Z" transform="translate(-276.987 -3182.542)" fill="#fff"/>
    <path id="Path_63" data-name="Path 63" d="M317.022,3200.878c-.136.019-.329-.052-.394.05s-.021.285-.024.431c0,.039,0,.079,0,.117-.006.146.061.215.208.213.233,0,.467,0,.7,0,.127,0,.214-.047.215-.187,0-.339,0-.678,0-1.064A1.178,1.178,0,0,1,317.022,3200.878Z" transform="translate(-301.969 -3182.626)" fill="#fff"/>
    <path id="Path_64" data-name="Path 64" d="M277.584,3188.962a5.945,5.945,0,0,0-.295,1.381c-.01.093,0,.163.114.133.087-.023.248.092.252-.1.01-.472,0-.944,0-1.416Z" transform="translate(-275.766 -3174.975)" fill="#fff"/>
    <path id="Path_65" data-name="Path 65" d="M320.937,3188.935l-.076,0c0,.467,0,.933,0,1.4,0,.2.147.1.233.121s.159.01.144-.127A5.746,5.746,0,0,0,320.937,3188.935Z" transform="translate(-304.815 -3174.957)" fill="#fff"/>
    <path id="Path_66" data-name="Path 66" d="M294.228,3156.929a5.185,5.185,0,0,1-.05-.605c-.089-1.183-.172-2.365-.269-3.548a.711.711,0,0,0-.785-.715q-4.249,0-8.5,0a.742.742,0,0,0-.8.758c-.1,1.33-.2,2.661-.305,3.991-.044.535.158.777.692.777h6.158c1.077,0,2.154-.01,3.231.006A.591.591,0,0,0,294.228,3156.929Z" transform="translate(-279.919 -3150.374)" fill="#fff"/>
    <path id="Path_67" data-name="Path 67" d="M284.7,3173.965a4.342,4.342,0,0,1-.655,0c-.156-.011-.168.053-.176.185-.011.186.028.279.234.243a1.555,1.555,0,0,1,.257,0,2.151,2.151,0,0,1,.327,0c.189.03.177-.086.171-.208S284.907,3173.948,284.7,3173.965Z" transform="translate(-280.156 -3164.977)" fill="#fff"/>
    <path id="Path_68" data-name="Path 68" d="M313.224,3173.965a4.339,4.339,0,0,1-.655,0c-.156-.011-.168.053-.176.185-.011.185.028.278.235.242a1.555,1.555,0,0,1,.257,0,2.151,2.151,0,0,1,.327,0c.189.03.177-.086.171-.208S313.427,3173.948,313.224,3173.965Z" transform="translate(-299.17 -3164.977)" fill="#fff"/>
  </g>
</svg>
