<svg xmlns="http://www.w3.org/2000/svg" width="24.373" height="26.692" viewBox="0 0 24.373 26.692">
  <g id="Iconly_Light_Document" data-name="Iconly Light Document" transform="translate(0)">
    <g id="Document-4" transform="translate(0)">
      <path id="Path_146" data-name="Path 146" d="M233,367.7h-8.066a1,1,0,1,1,0-2.009H233a1,1,0,1,1,0,2.009Z" transform="translate(-217.55 -347.633)"/>
      <path id="Path_147" data-name="Path 147" d="M234.6,363.513h-9.671a1,1,0,1,1,0-2.009H234.6a1,1,0,1,1,0,2.009Z" transform="translate(-217.55 -349.053)"/>
      <path id="Path_148" data-name="Path 148" d="M228.622,359.336h-3.69a1,1,0,1,1,0-2.009h3.69a1,1,0,1,1,0,2.009Z" transform="translate(-217.55 -350.471)"/>
      <path id="Path_149" data-name="Path 149" d="M225.871,378.9c-.181,0-.372-.008-.565-.025a6.708,6.708,0,0,1-6.114-7.241l0-12.24a5.818,5.818,0,0,1-.011-.851,6.722,6.722,0,0,1,7.057-6.322h10.212a6.54,6.54,0,0,1,.959.013,6.712,6.712,0,0,1,6.109,7.253l0,12.234a6.1,6.1,0,0,1,.011.842,6.69,6.69,0,0,1-7.057,6.323H226.227C226.117,378.9,226,378.9,225.871,378.9Zm.039-24.679a4.694,4.694,0,0,0-4.717,5.09l0,12.406a4.723,4.723,0,0,0,4.278,5.157,4.417,4.417,0,0,0,.691.007h10.36a4.727,4.727,0,0,0,5-4.425,4.968,4.968,0,0,0-.009-.647l0-12.407a4.726,4.726,0,0,0-4.274-5.165,4.782,4.782,0,0,0-.693-.008l-.066,0h-10.3C226.088,354.224,226,354.221,225.91,354.221Z" transform="translate(-219.166 -352.208)"/>
    </g>
  </g>
</svg>
