<svg xmlns="http://www.w3.org/2000/svg" width="26.789" height="26.789" viewBox="0 0 26.789 26.789">
  <g id="Iconly_Light_Info_Circle" data-name="Iconly Light Info Circle" transform="translate(0)">
    <g id="Info_Circle-3" data-name="Info Circle-3" transform="translate(0)">
      <path id="Path_229" data-name="Path 229" d="M287.823,308.872a13.394,13.394,0,1,1,13.394-13.394A13.41,13.41,0,0,1,287.823,308.872Zm0-24.779a11.385,11.385,0,1,0,11.385,11.385A11.4,11.4,0,0,0,287.823,284.093Z" transform="translate(-274.429 -282.084)"/>
      <path id="Path_230" data-name="Path 230" d="M284.678,295.466a1,1,0,0,1-1-1v-5.919a1,1,0,1,1,2.009,0v5.919A1,1,0,0,1,284.678,295.466Z" transform="translate(-271.291 -280.233)"/>
      <path id="Path_231" data-name="Path 231" d="M284.685,297.139a.963.963,0,0,1-.388-.08,1.041,1.041,0,0,1-.321-.214,1,1,0,0,1,0-1.42,1.039,1.039,0,0,1,.321-.214,1,1,0,1,1,.388,1.929Z" transform="translate(-271.289 -277.655)"/>
    </g>
  </g>
</svg>
