<svg xmlns="http://www.w3.org/2000/svg" width="24.749" height="26.789" viewBox="0 0 24.749 26.789">
  <g id="Iconly_Light_Login" data-name="Iconly Light Login" transform="translate(0)">
    <g id="Login-4" transform="translate(0)">
      <path id="Path_74" data-name="Path 74" d="M432.732,363.431H416.6a1,1,0,1,1,0-2.009h16.128a1,1,0,1,1,0,2.009Z" transform="translate(-415.599 -349.032)"/>
      <path id="Path_75" data-name="Path 75" d="M425.717,368.327a1,1,0,0,1-.709-1.716l3.207-3.195-3.207-3.194a1,1,0,0,1,1.417-1.422l4.636,4.617-4.636,4.617A1,1,0,0,1,425.717,368.327Z" transform="translate(-412.505 -350.022)"/>
      <path id="Path_76" data-name="Path 76" d="M432.8,378.96h-6.543a5.935,5.935,0,0,1-5.926-5.927v-1.262a1,1,0,1,1,2.009,0v1.262a3.923,3.923,0,0,0,3.916,3.918H432.8a3.936,3.936,0,0,0,3.931-3.933V358.1a3.922,3.922,0,0,0-3.918-3.918h-6.542a3.935,3.935,0,0,0-3.931,3.929v1.251a1,1,0,1,1-2.009,0V358.11a5.945,5.945,0,0,1,5.939-5.938h6.543a5.934,5.934,0,0,1,5.927,5.927v14.92A5.948,5.948,0,0,1,432.8,378.96Z" transform="translate(-413.992 -352.172)"/>
    </g>
  </g>
</svg>
