<svg xmlns="http://www.w3.org/2000/svg" width="27.024" height="27.023" viewBox="0 0 27.024 27.023">
  <path id="Path_637" data-name="Path 637" d="M390.948,644.2l-1.052-1.052a3.3,3.3,0,0,1-.96-2.328v-1.5a3.3,3.3,0,0,0-3.3-3.3h-1.5a3.3,3.3,0,0,1-2.327-.959L380.754,634l-.013-.012h0a3.3,3.3,0,0,0-4.672.013l-1.05,1.052a3.3,3.3,0,0,1-2.327.959h-1.5a3.3,3.3,0,0,0-3.3,3.3v1.5a3.305,3.305,0,0,1-.961,2.328l-1.05,1.052-.013.013,0,0a3.3,3.3,0,0,0,.016,4.671l1.05,1.052a3.3,3.3,0,0,1,.961,2.325v1.506a3.3,3.3,0,0,0,3.3,3.3h1.5a3.306,3.306,0,0,1,2.327.961l1.05,1.05.013.013,0,0a3.3,3.3,0,0,0,4.669-.016l1.052-1.05a3.3,3.3,0,0,1,2.327-.961h1.506a3.3,3.3,0,0,0,3.3-3.3v-1.5a3.294,3.294,0,0,1,.96-2.325l1.052-1.052.013-.013h0A3.3,3.3,0,0,0,390.948,644.2Zm-17.3-1.832a1,1,0,0,1,.234-.35,1.127,1.127,0,0,1,1.548,0,1.09,1.09,0,0,1,.321.774.958.958,0,0,1-.073.409,1.481,1.481,0,0,1-.248.365,1.131,1.131,0,0,1-.35.232,1.053,1.053,0,0,1-.424.089.991.991,0,0,1-.409-.089,1.185,1.185,0,0,1-.365-.232,1.413,1.413,0,0,1-.234-.365.984.984,0,0,1-.088-.409A1.053,1.053,0,0,1,373.644,642.364Zm9.537,8.338a1.246,1.246,0,0,1-.248.365,1.093,1.093,0,0,1-1.548,0,1.216,1.216,0,0,1-.234-.365.985.985,0,0,1-.088-.409,1.052,1.052,0,0,1,.088-.423,1.091,1.091,0,0,1,1.782-.351,1.161,1.161,0,0,1,.248.351,1.343,1.343,0,0,1,.073.423A1.265,1.265,0,0,1,383.181,650.7Zm-.244-7.145-7.505,7.507a1.1,1.1,0,0,1-1.55-1.548l7.507-7.507a1.095,1.095,0,1,1,1.548,1.548Z" transform="translate(-364.899 -633.027)" fill="#fff"/>
</svg>
