<svg id="Iconly_Light_Play" data-name="Iconly Light Play" xmlns="http://www.w3.org/2000/svg" width="28.798" height="28.798" viewBox="0 0 28.798 28.798">
  <g id="Play-4">
    <path id="Path_65" data-name="Path 65" d="M512.732,246.23a14.4,14.4,0,1,1,14.4-14.4A14.415,14.415,0,0,1,512.732,246.23Zm0-26.789a12.39,12.39,0,1,0,12.39,12.39A12.4,12.4,0,0,0,512.732,219.441Z" transform="translate(-498.333 -217.432)"/>
    <path id="Path_66" data-name="Path 66" d="M508.24,234.949a1.687,1.687,0,0,1-1.491-.907.928.928,0,0,1-.063-.157,7.423,7.423,0,0,1-.256-1.06,23.361,23.361,0,0,1-.206-3.4,21.97,21.97,0,0,1,.222-3.458,8.217,8.217,0,0,1,.242-1,1.687,1.687,0,0,1,.765-.838,1.586,1.586,0,0,1,.832-.2.943.943,0,0,1,.185.023,5.484,5.484,0,0,1,.936.289,20.838,20.838,0,0,1,5.4,3.634l.108.113c.134.141.338.363.379.415a1.684,1.684,0,0,1,.04,2.013c-.049.067-.236.276-.376.423-.015.017-.121.13-.137.145a20.95,20.95,0,0,1-5.244,3.578,6.464,6.464,0,0,1-1.1.36A1.148,1.148,0,0,1,508.24,234.949Zm.24-8.911c-.019.094-.039.19-.051.254a20.052,20.052,0,0,0-.2,3.132,21.629,21.629,0,0,0,.182,3.1c.017.1.039.2.064.311.094-.032.185-.068.276-.107a18.9,18.9,0,0,0,4.675-3.191l.066-.072.028-.029c-.023-.025-.046-.048-.066-.07a18.739,18.739,0,0,0-4.857-3.286C508.565,226.067,508.523,226.052,508.479,226.037Zm5.66,4.212h0Z" transform="translate(-495.656 -215.227)"/>
  </g>
</svg>
