<svg xmlns="http://www.w3.org/2000/svg" width="26.851" height="22.676" viewBox="0 0 26.851 22.676">
  <g id="Group_30" data-name="Group 30" transform="translate(0)">
    <path id="Path_127" data-name="Path 127" d="M491.075,271.239h-.007a1,1,0,0,1-1-1.011c.011-1.937-2.856-2.937-8.524-2.974s-8.547.92-8.559,2.838a1,1,0,0,1-1,1h-.007a1,1,0,0,1-1-1.011c.028-4.391,6.047-4.849,10.581-4.834,2.609.016,10.551.067,10.52,5A1,1,0,0,1,491.075,271.239Z" transform="translate(-470.978 -248.562)"/>
    <path id="Path_128" data-name="Path 128" d="M480.727,267.035h-.08a7.123,7.123,0,0,1,.08-14.245h.046a7.122,7.122,0,0,1-.046,14.245Zm0-12.236a5.113,5.113,0,0,0-.07,10.227l.032,1,.007-1h.031a5.113,5.113,0,0,0,.032-10.227Z" transform="translate(-470.086 -252.79)"/>
    <path id="Path_129" data-name="Path 129" d="M488.471,266.147h-.007a1,1,0,0,1-1-1.011l.034-5.371a1,1,0,0,1,1-1h.007a1,1,0,0,1,1,1.011l-.034,5.371A1,1,0,0,1,488.471,266.147Z" transform="translate(-465.382 -250.761)"/>
    <path id="Path_130" data-name="Path 130" d="M491.918,262.8h-.007l-5.478-.035a1,1,0,0,1,.007-2.009h.007l5.477.035a1,1,0,0,1-.005,2.009Z" transform="translate(-466.071 -250.085)"/>
  </g>
</svg>
